<?xml version="1.0" encoding="iso-8859-1"?>
<!-- Uploaded to: SVG Repo, www.svgrepo.com, Generator: SVG Repo Mixer Tools -->
<svg fill="#000000" height="800px" width="800px" version="1.1" id="Layer_1" xmlns="http://www.w3.org/2000/svg" xmlns:xlink="http://www.w3.org/1999/xlink" 
	 viewBox="0 0 512 512" xml:space="preserve">
<g>
	<g>
		<g>
			<path d="M149.333,0C67.008,0,0,66.987,0,149.333c0,69.376,116.693,321.792,130.005,350.336
				c3.499,7.509,11.029,12.331,19.307,12.331h0.021c8.299,0,15.808-4.8,19.328-12.309
				c13.291-28.459,130.005-280.107,130.005-350.357C298.667,66.987,231.659,0,149.333,0z M149.333,213.333
				c-35.285,0-64-28.715-64-64c0-35.285,28.715-64,64-64s64,28.715,64,64C213.333,184.619,184.619,213.333,149.333,213.333z"/>
			<path d="M149.333,128C137.557,128,128,137.579,128,149.333c0,11.755,9.557,21.333,21.333,21.333s21.333-9.579,21.333-21.333
				C170.667,137.579,161.109,128,149.333,128z"/>
			<path d="M490.667,256c-11.797,0-21.333,9.557-21.333,21.333v85.333h-128v-85.333c0-11.776-9.536-21.333-21.333-21.333
				c-11.797,0-21.333,9.557-21.333,21.333v213.333c0,11.776,9.536,21.333,21.333,21.333c11.797,0,21.333-9.557,21.333-21.333
				v-85.333h128v85.333c0,11.776,9.536,21.333,21.333,21.333c11.797,0,21.333-9.557,21.333-21.333V277.333
				C512,265.557,502.464,256,490.667,256z"/>
		</g>
	</g>
</g>
</svg>